<svg width="194" height="194" viewBox="0 0 194 194" fill="none" xmlns="http://www.w3.org/2000/svg">
<circle cx="97" cy="97" r="96.5" fill="#E6D3BC"/>
<path d="M126.344 42.1787L121.543 49.247C121.543 49.247 124.159 51.2829 125.41 54.1854C126.494 56.7335 127.279 59.7213 123.143 64.7194L119.408 68.4584C106.838 57.7536 94.0634 57.25 94.0634 57.25H91.6647L90.3287 59.3841C90.3287 59.3841 79.4446 77.8913 68.9874 97.0004C63.7587 106.553 58.5856 116.276 54.9917 123.946C53.1862 127.779 51.7692 131.117 50.8515 133.814C50.4033 135.163 50.0832 136.298 49.921 137.549C49.7503 138.8 49.285 140.515 51.385 142.62C53.4893 144.72 55.2051 144.25 56.4557 144.084C57.7063 143.917 58.8417 143.601 60.1904 143.153C62.8923 142.235 66.2258 140.818 70.063 139.013C77.7202 135.415 87.4433 130.25 97 125.017C116.092 114.543 134.616 103.676 134.616 103.676L136.75 102.34V99.8046C136.75 99.8046 136.183 87.1833 125.546 74.5962L127.01 72.9956C127.377 72.6285 127.71 72.3767 128.077 72.0609L129.144 71.1261C134.181 67.2591 138.949 67.4127 143.153 68.4627C146.069 69.1996 148.827 70.4639 151.288 72.1932L156.623 65.5261C156.623 65.5261 151.886 61.8768 145.15 60.1908C143.661 59.8407 142.145 59.6179 140.617 59.525L149.286 50.8518L143.149 44.7183L134.215 53.6561C133.999 52.6493 133.686 51.6658 133.28 50.7195C130.877 45.1195 126.344 42.183 126.344 42.183V42.1787ZM96.1976 66.32C99.0018 66.5889 107.022 67.7542 116.608 77.3919C126.212 87.0638 127.394 95.0199 127.676 97.7985C126.976 98.2168 123.327 100.419 120.475 102.067C118.964 98.7134 117.084 95.5383 114.871 92.5998L108.072 97.8028C111.072 101.802 112.306 104.555 113.006 106.339C106.321 110.126 99.6071 113.861 92.864 117.544C92.45 117.757 92.083 117.992 91.6647 118.209C90.8793 115.875 89.5988 113.058 87.2641 109.805L80.3281 114.739C82.4281 117.676 83.461 120.092 83.9306 121.675C84.0117 121.944 84.0117 122.008 84.0586 122.209C77.6775 125.628 71.5099 128.91 66.4563 131.279C63.8227 132.517 61.9532 133.2 60.0539 133.946C60.8051 132.047 61.488 130.178 62.7215 127.544C66.1703 120.194 71.2751 110.608 76.4568 101.136C78.958 96.5693 80.8617 93.1504 83.1281 89.1297C84.494 90.3291 86.261 91.9467 88.1988 94.465L94.8659 89.262C92.7011 86.3887 90.1926 83.7914 87.3964 81.5279C91.8653 73.6913 95.4335 67.6389 96.2018 66.32H96.1976Z" fill="#662C0A"/>
</svg>
