<svg width="194" height="194" viewBox="0 0 194 194" fill="none" xmlns="http://www.w3.org/2000/svg">
<circle cx="97" cy="97" r="96.5" fill="#E6D3BC"/>
<path d="M73.5242 52.1836L75.9273 58.0525C77.4254 61.7018 79.4614 70.8231 78.9919 75.1255C73.1742 78.7109 69.606 82.2109 66.8529 85.1304C63.4895 82.4115 56.8353 77.7932 45.7805 77.7932H41.5122V82.0615C41.5122 90.2309 44.4616 96.8681 45.5158 99.1346C44.4488 101.384 41.5122 107.786 41.5122 116.208V120.476H45.7805C56.7499 120.476 63.4853 115.841 66.8572 113.139C71.9065 118.342 79.1071 123.826 88.1985 127.945C87.7973 130.596 87.4815 134.297 88.5955 138.616L89.3979 141.817H92.7314C97.9985 141.817 102.536 139.201 106.202 136.883C109.203 134.979 110.654 133.648 111.405 133.012C128.38 132.414 139.217 123.259 145.018 114.206C151.019 104.854 152.487 95.5321 152.487 95.5321L152.62 94.4651L152.223 93.398C152.223 93.398 142.448 66.5549 115.942 65.253C113.125 61.8384 109.186 59.0043 103.671 56.7165C97.1491 54.0189 88.9455 52.1836 79.9266 52.1836H73.5242ZM85.9278 61.2537C91.3144 61.8512 96.3509 62.9396 100.333 64.5872C105.788 66.8408 109.587 70.0719 110.47 71.5231L111.674 73.5249H114.073C135.397 73.5249 143.067 93.7139 143.686 95.3998C143.387 96.9663 142.149 102.921 137.817 109.673C132.862 117.39 124.842 124.744 109.805 124.744H108.204L107.005 125.811C107.005 125.811 104.751 127.732 101.669 129.678C100.047 130.698 98.6686 130.882 96.9997 131.548C97.1704 129.597 96.9997 126.746 96.9997 126.746L97.9345 123.011L94.4644 121.808C83.8961 117.774 74.9071 110.172 70.323 104.871L67.3865 101.401L64.1853 104.602C64.1853 104.602 58.4999 108.589 51.1158 110.471C52.217 105.469 53.9158 101.004 53.9158 101.004L54.8505 99.1346L53.9158 97.2651C53.9158 97.2651 52.0676 92.3651 50.9835 87.1279C58.8499 88.8651 64.1853 93.6669 64.1853 93.6669L67.3865 96.8681L70.323 93.398C74.1431 89.0828 84.4297 78.3267 99.5351 76.3249L98.3314 67.9207C94.2467 68.4585 90.6827 69.6408 87.2638 70.9939C87.0461 67.4085 86.8626 64.3226 85.9278 61.2537ZM124.743 90.598C123.045 90.598 121.417 91.2726 120.216 92.4732C119.016 93.6739 118.341 95.3024 118.341 97.0004C118.341 98.6984 119.016 100.327 120.216 101.528C121.417 102.728 123.045 103.403 124.743 103.403C126.441 103.403 128.07 102.728 129.271 101.528C130.471 100.327 131.146 98.6984 131.146 97.0004C131.146 95.3024 130.471 93.6739 129.271 92.4732C128.07 91.2726 126.441 90.598 124.743 90.598Z" fill="#662C0A"/>
</svg>
