<svg width="194" height="194" viewBox="0 0 194 194" fill="none" xmlns="http://www.w3.org/2000/svg">
<circle cx="97" cy="97" r="96.5" fill="#E6D3BC"/>
<path d="M79.9271 45.7812C68.9064 45.7812 59.1022 51.919 52.3157 61.2537C45.5291 70.5927 41.5127 83.1926 41.5127 97.0005C41.5127 110.804 45.5291 123.413 52.3157 132.747C59.1022 142.086 68.9064 148.22 79.9271 148.22C115.055 148.22 133.78 128.129 138.351 107.005C141.561 104.683 143.951 101.252 143.951 97.0005C143.951 92.7493 141.565 89.3176 138.347 86.9957C133.537 65.3385 111.141 45.7812 79.9271 45.7812ZM79.9271 54.3178C87.7637 54.3178 95.0368 58.6543 100.603 66.3244C106.168 73.986 109.805 84.8786 109.805 97.0005C109.805 109.122 106.168 120.006 100.603 127.681C95.0325 135.342 87.7637 139.683 79.9271 139.683C72.0906 139.683 64.8174 135.347 59.2516 127.677C53.6858 120.015 50.0492 109.122 50.0492 97.0005C50.0492 84.8786 53.6858 73.9945 59.2516 66.3202C64.8217 58.6544 72.0906 54.3178 79.9271 54.3178ZM107.137 60.8525C120.113 67.7244 128.445 79.0268 130.48 90.0645L130.877 92.1987L132.884 93.1334C134.365 93.8163 135.415 95.2505 135.415 97.0005C135.415 98.7505 134.365 100.185 132.879 100.868L130.882 101.802L130.48 103.936C128.21 116.293 120.757 128.411 105.801 134.881C106.386 134.181 106.988 133.498 107.539 132.747C114.325 123.408 118.342 110.808 118.342 97.0005C118.342 83.1969 114.325 70.5884 107.539 61.2537C107.419 61.1043 107.253 61.0019 107.137 60.8525ZM79.9271 62.8543C76.8753 62.8543 74.007 63.9555 71.3906 65.7909L80.0594 86.1932L88.8649 65.9189C86.1588 63.9427 83.0942 62.8543 79.9271 62.8543ZM64.9882 72.5902C61.6376 77.8402 59.337 84.8829 58.7181 92.7322H73.5247L64.9882 72.5902ZM95.135 72.9915L86.4576 92.7322H101.132C100.534 85.0621 98.3618 78.2116 95.1264 72.9915H95.135ZM58.7138 101.269C59.3114 108.939 61.4839 115.789 64.715 121.009L73.3967 101.269H58.7138ZM86.3253 101.269L94.8618 121.411C98.2124 116.161 100.513 109.118 101.132 101.269H86.3253ZM79.7905 107.803L70.9851 128.078C73.6869 130.062 76.7558 131.147 79.9228 131.147C82.9747 131.147 85.8429 130.045 88.4594 128.21L79.7905 107.803Z" fill="#662C0A"/>
</svg>
