<svg width="130" height="155" viewBox="0 0 130 155" fill="none" xmlns="http://www.w3.org/2000/svg">
<path d="M81.5234 54.8943C81.5234 54.8943 90.4545 59.076 88.4984 79.0976C86.5423 99.1192 63.3929 136.994 60.4588 140.781C57.5247 144.569 45.9499 155.751 30.7866 153.766C15.6233 151.781 7.81372 141.485 7.81372 141.485M12.373 95.9258C8.72558 91.915 -5.32732 74.1592 11.873 55.2887C31.4374 33.8231 48.2958 60.5321 48.2958 60.5321M57.3776 54.0682C57.3445 49.6913 58.2416 40.9984 65.2129 36.3774M65.2129 36.3774C65.4151 36.2431 65.6211 36.113 65.8343 35.9869C76.1074 29.8567 86.7041 35.0879 90.778 38.513C94.8556 41.9421 97.3007 45.0865 98.7678 46.9415C100.235 48.7964 106.592 61.4187 108.875 64.1238C111.155 66.8289 125.991 79.8174 128.436 93.3428C130.881 106.872 124.69 113.906 122.895 117.693C121.101 121.48 114.093 129.778 106.592 133.744C99.0914 137.714 86.8659 137.714 78.5525 133.744C73.7984 131.478 70.8532 128.562 69.2023 126.479M65.2129 36.3774C57.4842 20.2038 63.062 1 63.062 1M62.209 15.6115C62.209 15.6115 70.5627 6.23115 85.0716 8.75725C99.5804 11.2834 105.022 22.1037 105.022 22.1037C105.022 22.1037 99.3304 20.8427 89.1051 26.4318C78.8798 32.021 69.3898 26.2528 67.4484 25.1708C65.5108 24.0888 62.584 20.1064 63.4775 18.581C64.3709 17.0556 69.4229 13.8095 79.2033 14.8915C88.9837 15.9735 95.6682 20.1227 95.6682 20.1227M70.7245 16.5104C70.7245 16.5104 72.5188 19.7565 78.0598 21.3795C83.6008 23.0026 87.1894 22.6405 87.1894 22.6405M79.2033 14.8876C79.2033 14.8876 83.6045 11.2794 87.1931 11.6414M79.0379 52.4048C86.5129 58.3926 85.5606 68.2773 83.9281 74.7695C82.2955 81.2617 71.8643 103.809 69.092 109.578C66.3197 115.35 53.6051 134.826 50.3438 138.076C47.0824 141.323 32.2463 158.098 13.3363 146.013C-5.57367 133.927 2.58157 112.645 3.72139 108.858C4.86121 105.07 15.4579 91.724 20.1863 86.4928C24.9147 81.2617 44.152 63.7661 49.8584 59.259C55.5649 54.7519 69.5847 44.8265 79.0379 52.4048ZM47.2479 90.2799C51.649 94.067 59.8006 102.365 51.4873 116.973C43.1739 131.58 30.2939 124.73 26.8708 122.383C23.4477 120.036 12.0347 108.133 26.8708 93.164C35.8166 84.1376 47.2479 90.2799 47.2479 90.2799Z" stroke="#E6D3BC" stroke-miterlimit="10"/>
</svg>
