<svg width="431" height="293" viewBox="0 0 431 293" fill="none" xmlns="http://www.w3.org/2000/svg">
<path d="M221.359 149.683C221.359 149.683 220.612 121.496 239.208 112.362C257.804 103.229 260.782 104.053 260.782 104.053C260.782 104.053 264.498 112.362 262.267 115.532C260.036 118.711 258.593 114.69 258.593 113.947C258.593 113.204 263.055 105.763 274.488 105.763C285.921 105.763 291.918 111.87 291.918 111.87C291.918 111.87 291.776 118.12 288.571 120.949C288.571 120.949 293.176 114.843 300.566 115.29C300.566 115.29 310.883 124.37 314.373 131.068C314.373 131.068 305.448 144.32 289.544 145.806C289.544 145.806 297.63 147.445 299.727 149.674C299.727 149.674 271.695 160.545 266.117 155.477C260.539 150.408 268.625 150.561 270.999 153.095C273.372 155.629 278.112 162.917 278.112 162.917C278.112 162.917 255.38 169.32 250.918 158.002L252.176 166.938C252.176 166.938 230.695 162.622 224.421 155.324C218.146 148.027 239.343 137.156 250.222 134.479C261.101 131.802 282.44 129.868 288.857 131.202M215.781 146.701C215.781 146.701 204.902 125.265 182.313 123.179C182.313 123.179 178.966 130.62 183.429 134.945C183.429 134.945 175.343 119.015 147.721 126.456C147.721 126.456 152.746 139.261 156.369 138.965C159.993 138.67 160.412 133.306 156.512 133.163C152.603 133.011 136.079 133.091 127.087 143.433C127.087 143.433 134.058 149.092 139.635 148.197C139.635 148.197 129.318 149.092 120.67 172.615C120.67 172.615 139.635 181.246 149.961 177.378C149.961 177.378 146.337 188.696 142.152 189.287C142.152 189.287 165.579 188.392 168.23 179.76C170.88 171.128 162.233 174.397 162.795 177.083C163.357 179.769 169.211 189.287 169.211 189.287C169.211 189.287 184.553 190.183 191.523 177.378C191.523 177.378 193.478 185.419 190.131 188.096C190.131 188.096 218.583 168.147 217.744 152.665C216.905 137.183 155.799 154.465 149.223 161.377M163.893 138.67C163.893 138.67 181.466 143.729 180.912 153.256M196.254 153.256C196.254 153.256 192.907 166.06 177.566 169.337M273.515 119.508C273.515 119.508 256.571 125.471 255.145 135.491M241.716 142.538C241.716 142.538 264.59 145.52 276.023 141.347M236.608 107.599C236.608 107.599 249.626 87.3536 242.555 71.075C242.555 71.075 233.63 74.6477 233.63 77.8264C233.63 77.8264 241.071 45.6721 230.284 30.9784C230.284 30.9784 224.706 33.3602 223.959 38.5178C223.959 38.5178 207.963 13.5089 201.647 10.7242C201.647 10.7242 198.116 17.4756 199.416 25.6149C199.416 25.6149 189.56 3.77578 178.22 1C178.22 1 173.942 9.1393 175.427 14.6998C175.427 14.6998 156.831 1.40294 150.506 6.16653C150.506 6.16653 144.928 22.2481 150.506 30.5844C150.506 30.5844 146.597 28.9995 143.444 31.1843C143.444 31.1843 140.466 52.2265 158.693 64.7354C158.693 64.7354 149.953 63.5445 149.206 66.3203C148.46 69.0961 152.184 83.5928 171.895 92.726C171.895 92.726 162.786 93.12 162.224 94.7138C162.224 94.7138 174.496 116.553 181.374 119.526M218.75 134.596C218.75 134.596 179.327 50.4268 175.98 38.5178C172.634 26.6088 187.883 26.4118 191.783 35.939C198.804 53.0861 191.783 82.8317 191.783 82.8317M222.659 78.0234C222.659 78.0234 222.097 106.811 210.941 114.547M210.941 171.719C210.941 171.719 197.084 187.496 198.762 201.492C198.762 201.492 211.31 203.283 214.38 199.405C214.38 199.405 201.832 207.151 202.109 232.751C202.109 232.751 209.918 233.646 214.38 227.387C214.38 227.387 202.109 239.592 212.426 262.523C212.426 262.523 221.065 256.273 221.351 249.719C221.351 249.719 216.888 264.905 231.676 281.282C231.676 281.282 236.415 279.196 238.093 271.755C238.093 271.755 246.464 286.341 259.012 292C259.012 292 271.561 281.873 270.445 260.141C270.445 260.141 276.585 264.314 282.44 265.505C282.44 265.505 290.249 250.919 284.117 231.855C284.117 231.855 291.088 237.219 294.158 235.428C294.158 235.428 289.695 203.865 275.193 197.91C275.193 197.91 283.564 198.806 285.233 196.424C285.233 196.424 276.275 169.329 259.574 166.947M222.659 159.81C222.659 159.81 235.325 170.824 244.661 207.151C253.996 243.478 257.343 254.491 253.72 259.559C250.096 264.627 240.609 264.323 241.171 256.577C241.733 248.832 242.287 219.355 252.889 212.81M241.716 178.569C241.716 178.569 230.837 186.61 228.329 202.092C225.821 217.573 226.652 225.023 226.652 225.023M248.695 85.3657C248.695 85.3657 255.951 67.8962 272.123 60.2584C272.123 60.2584 276.585 62.0492 277.147 72.8121C277.147 72.8121 285.518 49.6388 305.037 47.848C324.564 46.0571 327.911 51.4207 327.911 51.4207C327.911 51.4207 337.674 69.9199 327.911 66.4278C318.147 62.9357 334.051 53.2115 342.413 53.8025C350.776 54.3934 375.328 61.7448 387.599 78.0234L382.021 91.3202C382.021 91.3202 397.086 85.3657 401.548 86.5566C406.011 87.7475 428.322 117.726 430 134.596C430 134.596 413.266 155.647 389.83 156.238C389.83 156.238 387.037 164.565 392.061 170.519C392.061 170.519 342.506 176.671 353.385 165.953C364.264 155.235 355.062 183.225 358.594 189.296C358.594 189.296 327.072 196.128 314.381 183.028L309.499 194.937C309.499 194.937 292.547 192.761 281.609 178.56M404.333 123.179C364.725 109.784 320.093 121.209 320.093 121.209C320.093 121.209 324.002 145.502 356.916 150.874M366.956 90.1293C366.956 90.1293 349.107 98.5014 346.876 119.929M314.381 75.2386C314.381 75.2386 302.244 82.2139 296.666 104.035M166.687 109.685C166.687 109.685 139.073 80.7991 113.306 93.8901L117.735 102.396C117.735 102.396 101.689 91.5799 76.7932 97.5254C51.8979 103.471 51.3443 116.365 51.3443 116.365C51.3443 116.365 60.0174 132.572 63.5151 124.155C67.0129 115.738 44.701 123.349 38.6198 126.573C32.5302 129.796 17.0461 143.245 13.7245 153.981C13.7245 153.981 31.985 155.047 32.5386 157.196C33.0922 159.345 4.87522 166.866 1 195.081C1 195.081 10.4029 205.557 25.8953 209.855C25.8953 209.855 38.6198 208.351 39.727 203.73C39.727 203.73 38.9889 213.437 36.2209 216.033C36.2209 216.033 42.8557 223.286 64.0687 226.33C64.0687 226.33 90.3313 219.695 82.4467 215.174C74.562 210.652 80.5846 230.458 76.2396 236.001C76.2396 236.001 88.9641 245.671 114.782 241.373C114.782 241.373 126.953 237.613 131.382 228.659C131.382 228.659 133.043 239.762 131.566 243.522C131.566 243.522 173.061 235.643 176.198 214.144C179.335 192.645 180.074 217.726 180.074 220.77C180.074 220.77 199.617 210.204 201.463 199.45M116.476 161.986C116.476 161.986 61.0659 162.38 21.6427 190.971M37.63 150.874C37.63 150.874 74.453 155.566 85.6089 171.88M113.876 171.88C113.876 171.88 111.276 186.207 91.5643 205.664M87.8401 126.653C87.8401 126.653 98.2495 124.665 113.876 126.653C129.494 128.641 132.841 133.772 132.841 133.772" stroke="#E6D3BC" stroke-miterlimit="10"/>
</svg>
