<svg width="230" height="167" viewBox="0 0 230 167" fill="none" xmlns="http://www.w3.org/2000/svg">
<path fill-rule="evenodd" clip-rule="evenodd" d="M83 123C55.9589 130.415 43.6525 171.5 16.0833 166.394C-14.0276 160.818 -41.6882 137.355 -52.5428 108.683C-63.5361 79.6451 -57.227 44.4049 -39.8329 18.6949C-24.0109 -4.69145 6.27773 -12.3235 33.728 -18.8326C53.2476 -23.4612 72.0439 -12.845 92.1018 -12.59C111.749 -12.3402 130.496 -22.6995 149.409 -17.3619C174.324 -10.3301 200.945 -0.358627 214.242 21.8816C228.671 46.015 237.202 80.2727 221.875 103.845C206.268 127.849 168 136.5 139 123C119.174 113.77 99.7856 118.397 83 123Z" fill="#4E603E"/>
</svg>
