<svg width="661" height="650" viewBox="0 0 661 650" fill="none" xmlns="http://www.w3.org/2000/svg">
<path fill-rule="evenodd" clip-rule="evenodd" d="M229.589 115.499C144.992 88.3356 78.017 -16.4819 -8.23267 2.22031C-102.434 22.6466 -188.969 108.594 -222.927 213.622C-257.319 319.991 -237.582 449.08 -183.165 543.258C-133.666 628.925 -38.909 656.882 46.9684 680.725C108.035 697.68 166.839 658.792 229.589 657.858C291.056 656.943 349.705 694.89 408.872 675.338C486.819 649.579 570.103 613.053 611.702 531.585C656.842 443.182 683.531 317.692 635.582 231.346C586.754 143.416 475.43 154.412 388.478 129.601C335.575 114.506 282.103 132.361 229.589 115.499Z" fill="#4E603E"/>
</svg>
