<svg xmlns="http://www.w3.org/2000/svg" xmlns:vectornator="http://vectornator.io" xmlns:xlink="http://www.w3.org/1999/xlink" stroke-miterlimit="10" style="fill-rule:nonzero;clip-rule:evenodd;stroke-linecap:round;stroke-linejoin:round;" version="1.1" xml:space="preserve" viewBox="70.88 17.34 141.75 141.75">
<defs/>
<g id="Layer-2" vectornator:layerName="Layer 2">
<path d="M70.875 88.211C70.875 49.0679 102.607 17.3361 141.75 17.3361C180.893 17.3361 212.625 49.0679 212.625 88.211C212.625 127.354 180.893 159.086 141.75 159.086C102.607 159.086 70.875 127.354 70.875 88.211Z" fill="#4e603e" fill-opacity="0.958136" fill-rule="nonzero" opacity="1" stroke="none"/>
<path d="M75.1275 88.2111C75.1275 51.4165 104.955 21.5886 141.75 21.5886C178.545 21.5886 208.373 51.4165 208.373 88.2111C208.373 125.006 178.545 154.834 141.75 154.834C104.955 154.834 75.1275 125.006 75.1275 88.2111Z" fill="#e6d3bc" fill-opacity="0.958136" fill-rule="nonzero" opacity="1" stroke="none"/>
<path d="M77.9625 88.211C77.9625 52.9805 106.521 24.4206 141.75 24.4206C176.979 24.4206 205.537 52.9805 205.537 88.211C205.537 123.442 176.979 152.002 141.75 152.002C106.521 152.002 77.9625 123.442 77.9625 88.211Z" fill="none" opacity="1" stroke="#662c0a" stroke-dasharray="2.0,2.0,2.0,2.0" stroke-linecap="round" stroke-linejoin="round" stroke-opacity="0.958136" stroke-width="0.76"/>
</g>
<g id="Layer-3" vectornator:layerName="Layer 3">
<g opacity="1">
<path d="M127.341 58.1821L104.573 105.136L175.432 88.4587L127.341 58.1821Z" fill="#e6d3bc" fill-opacity="0.958136" fill-rule="nonzero" opacity="1" stroke="#662c0a" stroke-linecap="round" stroke-linejoin="round" stroke-opacity="0.958136" stroke-width="1.5"/>
<path d="M127.373 58.159L123.997 69.7002L114.335 102.733" fill="none" opacity="1" stroke="#662c0a" stroke-linecap="round" stroke-linejoin="round" stroke-opacity="0.958136" stroke-width="1.5"/>
<path d="M127.401 58.4483L128.027 99.6477" fill="none" opacity="1" stroke="#662c0a" stroke-linecap="round" stroke-linejoin="round" stroke-opacity="0.958136" stroke-width="1.5"/>
<path d="M127.467 58.4484L154.936 93.0709" fill="none" opacity="1" stroke="#662c0a" stroke-linecap="round" stroke-linejoin="round" stroke-opacity="0.958136" stroke-width="1.5"/>
<path d="M127.503 58.5148L167.731 90.1739" fill="none" opacity="1" stroke="#662c0a" stroke-linecap="round" stroke-linejoin="round" stroke-opacity="0.958136" stroke-width="1.5"/>
<g opacity="1">
<path d="M111.781 103.219C111.488 103.222 111.247 103.457 111.25 103.75C109.326 104.301 108.654 104.428 109.312 104.312C109.947 104.201 110.613 104.124 111.25 104.219C111.379 104.238 111.259 104.464 111.25 104.594C111.236 104.804 111.202 105.043 111.156 105.25C110.975 106.074 110.337 107.17 109.438 107.344C108.49 107.527 107.93 106.606 107.656 105.844C107.552 105.554 107.463 105.271 107.406 104.969C107.402 104.944 107.382 104.883 107.406 104.875C107.404 104.859 107.379 104.859 107.375 104.844C107.057 104.925 106.724 104.98 106.406 105.062C106.396 105.065 106.499 105.464 106.5 105.469C106.605 105.91 106.737 106.342 106.938 106.75C107.44 107.773 108.424 108.563 109.625 108.344C110.83 108.124 111.691 106.975 112.062 105.875C112.193 105.489 112.284 105.061 112.312 104.656C112.323 104.507 112.462 104.233 112.312 104.219C111.33 104.123 112.316 104.22 112.312 103.75C112.31 103.457 112.074 103.216 111.781 103.219ZM107.375 104.844C108.034 104.675 108.703 104.469 109.375 104.375C110.043 104.281 108.508 104.58 107.344 104.812C107.349 104.827 107.371 104.828 107.375 104.844ZM107.344 104.812C107.264 104.59 107.054 104.4 106.812 104.438C106.538 104.48 106.364 104.757 106.406 105.031C107.341 104.831 106.804 104.92 107.344 104.812Z" fill="#662c0a" fill-opacity="0.958136" stroke="none"/>
</g>
<g opacity="1">
<path d="M174.281 88.4688C173.993 88.5251 173.787 88.806 173.844 89.0938C172.844 89.2564 172.508 89.2232 172.844 89.25C173.227 89.2807 173.643 89.4195 173.969 89.625C174.031 89.664 173.946 90.2605 173.938 90.3125C173.898 90.5668 173.811 91.3434 173.406 91.3438C172.792 91.3443 172.351 90.4282 172.125 90C172.055 89.8662 171.997 89.7326 171.938 89.5938C171.605 89.6825 171.268 89.7212 170.938 89.8125C170.877 89.8292 170.975 89.9423 171 90C171.043 90.0996 171.078 90.1834 171.125 90.2812C171.214 90.468 171.34 90.7098 171.438 90.875C171.847 91.568 172.51 92.3758 173.406 92.375C174.435 92.3741 174.835 91.3268 174.969 90.4688C174.993 90.3159 175.027 90.1546 175.031 90C175.036 89.8261 175.166 89.5201 175 89.4688C174.329 89.2615 175.018 89.4863 174.906 88.9062C174.85 88.6185 174.569 88.4124 174.281 88.4688ZM171.219 89.125C170.96 89.2247 170.807 89.5221 170.906 89.7812C171.931 89.552 171.612 89.6234 171.938 89.5625C171.905 89.5141 171.832 89.4479 171.875 89.4375C171.869 89.4375 171.844 89.4391 171.844 89.4375C171.744 89.1784 171.478 89.0253 171.219 89.125Z" fill="#662c0a" fill-opacity="0.958136" stroke="none"/>
</g>
<g opacity="1">
<path d="M172.594 91.3438C171.287 91.6578 172.262 93.9866 172.438 94.7188C172.502 94.9893 172.561 95.2605 172.625 95.5312C172.697 95.8334 172.774 96.1349 172.844 96.4375C173.949 101.243 174.502 106.158 174.5 111.094C174.499 114.06 174.342 117.102 173.656 120C171.744 128.083 166.528 135.372 159.156 139.312C156.189 140.899 153.034 141.722 149.688 142.031C147.313 142.251 144.917 142.194 142.562 141.812C139.107 141.252 135.84 139.991 132.781 138.312C130.158 136.873 127.684 135.174 125.469 133.156C120.232 128.388 116.591 122.076 114.188 115.469C113.178 112.694 112.264 109.77 111.812 106.844C111.749 106.432 111.38 106.155 110.969 106.219C110.557 106.282 110.28 106.682 110.344 107.094C110.812 110.118 111.707 113.101 112.75 115.969C115.236 122.807 119.023 129.345 124.438 134.281C126.74 136.381 129.336 138.155 132.062 139.656C135.622 141.617 139.452 143.006 143.5 143.5C146.054 143.811 148.639 143.746 151.188 143.406C154.265 142.996 157.165 142.148 159.906 140.688C167.678 136.546 173.2 128.861 175.219 120.344C175.934 117.326 176.092 114.183 176.094 111.094C176.097 106.779 175.715 102.383 174.844 98.1562C174.554 96.7512 174.209 95.3638 173.875 93.9688C173.782 93.578 173.707 93.1746 173.625 92.7812C173.601 92.6662 173.55 92.5554 173.531 92.4375C173.521 92.3755 173.547 92.1892 173.531 92.25C173.47 92.4893 173.485 92.5754 173.281 92.75C173.128 92.8813 172.963 92.9076 172.969 92.9062C173.396 92.8035 173.665 92.3652 173.562 91.9375C173.46 91.5098 173.021 91.241 172.594 91.3438Z" fill="#662c0a" fill-opacity="0.958136" stroke="none"/>
</g>
<g opacity="1">
<path d="M173.969 91.2812C173.576 91.4785 173.428 91.9506 173.625 92.3438C176.415 97.9003 177.915 103.901 177.969 110.125C178.009 114.844 177.286 119.582 175.906 124.094C175.372 125.84 174.776 127.606 173.906 129.219C172.162 132.456 169.793 135.129 167.156 137.656C165.015 139.708 162.663 141.452 159.969 142.719C156.991 144.119 153.777 144.954 150.531 145.438C147.629 145.87 144.611 146.142 141.688 145.781C138.425 145.379 135.319 144.239 132.375 142.812C121.925 137.748 114.956 128.519 111.781 117.469C110.902 114.409 110.198 111.136 110.125 107.938C110.115 107.521 109.791 107.209 109.375 107.219C108.959 107.229 108.615 107.552 108.625 107.969C108.713 111.651 109.571 115.407 110.656 118.906C114.226 130.413 121.791 139.703 132.844 144.719C135.602 145.97 138.485 146.938 141.5 147.312C144.807 147.723 148.223 147.382 151.5 146.844C154.977 146.273 158.423 145.308 161.562 143.688C164.247 142.302 166.532 140.408 168.688 138.312C171.266 135.806 173.56 133.15 175.281 129.969C176.422 127.859 177.181 125.522 177.812 123.219C179.07 118.637 179.683 113.845 179.531 109.094C179.336 102.974 177.804 97.0917 175.062 91.625C174.865 91.2318 174.362 91.084 173.969 91.2812Z" fill="#662c0a" fill-opacity="0.958136" stroke="none"/>
</g>
<g opacity="1">
<path d="M107.562 106.625C107.285 106.613 107.074 106.816 107.062 107.094C108.049 107.803 107.911 107.727 108.031 107.812C108.027 107.742 107.973 107.606 108.031 107.625C108.282 107.707 108.042 107.643 108.062 107.156C108.074 106.879 107.84 106.637 107.562 106.625ZM108.031 107.812C108.036 107.883 108.018 107.917 108.031 108C108.195 108.082 108.375 108.099 108.531 108.188C108.717 108.294 108.094 107.857 108.031 107.812ZM108.031 108C107.701 107.835 107.393 107.624 107.031 107.594C106.878 107.581 107.006 107.909 107 108.062C106.995 108.207 107.005 108.355 107 108.5C106.98 109.1 106.951 109.681 106.938 110.281C106.93 110.627 106.95 110.967 106.938 111.312C106.929 111.553 106.896 111.822 106.875 112.062C106.84 112.465 106.336 113.238 106.906 113.531C106.954 113.556 107.054 113.615 107.062 113.562C107.053 113.619 107.414 113.506 107.469 113.469C107.697 113.312 107.88 113.107 108.125 112.969C108.186 112.934 108.479 112.859 108.406 112.875C108.338 112.89 108.504 112.998 108.531 113.062C108.552 113.112 108.579 113.136 108.594 113.188C108.671 113.458 108.667 113.784 108.812 114.031C108.837 114.073 109.064 114.275 109.125 114.281C109.132 114.282 109.154 114.318 109.156 114.312C109.154 114.319 109.166 114.285 109.156 114.281C109.196 114.31 109.471 114.322 109.5 114.312C109.574 114.288 109.63 114.24 109.688 114.188C109.976 113.924 109.974 113.443 110 113.094C110.069 112.155 110.063 111.19 110.062 110.25C110.062 110.19 110.063 109.313 110.062 109.312C109.578 108.914 110.036 109.307 110.031 109.25C110.001 108.958 109.76 108.751 109.469 108.781C109.177 108.811 108.97 109.083 109 109.375C109.089 109.6 108.999 110.014 109 110.25C109.002 110.881 108.985 111.526 108.969 112.156C108.775 112.014 108.596 111.807 108.344 111.812C108.173 111.816 108.062 111.967 107.906 112.031C107.981 111.005 107.971 109.965 108 108.938C108.007 108.68 108.022 108.35 108.031 108.094C108.032 108.063 108.038 108.042 108.031 108Z" fill="#662c0a" fill-opacity="0.958136" stroke="none"/>
</g>
<g opacity="1">
<path d="M111.281 105.531C111.05 105.684 110.972 106.018 111.125 106.25C111.499 107.249 111.654 107.666 111.5 107.25C111.379 106.923 111.272 106.579 111.156 106.25C111.137 106.195 111.218 106.358 111.25 106.406C111.312 106.501 111.343 106.56 111.406 106.656C111.53 106.844 111.657 107.062 111.781 107.25C112.055 107.664 112.32 108.086 112.594 108.5C112.379 108.502 112.223 108.628 112.062 108.781C112.028 108.687 112.001 108.588 111.969 108.5C111.817 108.083 111.964 108.499 111.875 108.25C111.777 107.974 111.464 107.808 111.188 107.906C111.277 107.655 111.346 107.406 111.438 107.156C111.614 106.674 111.421 107.14 110.875 108.594C110.799 108.379 110.96 108.201 111.125 108.062C111.055 108.264 110.961 108.45 110.906 108.656C110.868 108.801 111.139 109.343 111.188 109.469C111.428 110.092 111.605 110.81 112.25 111.094C112.747 111.312 112.895 110.54 112.875 110.281C112.858 110.06 112.801 109.846 112.781 109.625C112.779 109.605 112.776 109.594 112.781 109.562C112.91 109.613 113.023 109.685 113.125 109.75C113.284 109.852 113.414 109.947 113.562 110.062C113.58 110.076 113.679 110.127 113.75 110.188C113.878 110.298 114.017 110.432 114.094 110.406C114.287 110.342 114.528 110.283 114.656 110.125C114.835 109.905 114.588 109.671 114.438 109.469C114.431 109.46 114.444 109.446 114.438 109.438C114.402 109.39 114.4 109.318 114.375 109.281C114.026 108.776 113.583 108.091 113.25 107.594C112.956 107.155 112.667 106.722 112.375 106.281C112.28 106.137 112.189 105.988 112.094 105.844C112.062 105.795 111.992 105.665 111.969 105.719C111.97 105.713 111.97 105.689 111.969 105.688C111.816 105.456 111.513 105.378 111.281 105.531Z" fill="#662c0a" fill-opacity="0.958136" stroke="none"/>
</g>
<g opacity="1">
<path d="M171.719 90.0625C171.513 90.0289 171.315 90.1695 171.281 90.375C171.268 90.3577 171.285 90.4161 171.281 90.4375C171.268 90.5155 171.263 90.6102 171.25 90.6875C171.228 90.8163 171.21 90.9328 171.188 91.0625C171.129 91.3931 171.063 91.7327 171 92.0625C170.801 93.0991 170.629 94.1309 170.188 95.0938C170.195 95.073 170.23 95.0717 170.25 95.0625C170.23 95.0853 170.206 95.1005 170.188 95.125C170 95.3674 169.897 95.6546 170.406 95.75C170.587 95.7839 170.698 95.6275 170.812 95.4688C170.825 95.452 170.864 95.4863 170.875 95.4688C170.918 95.433 170.984 95.4058 171.031 95.375C171.082 95.3419 171.133 95.3074 171.188 95.2812C171.238 95.257 171.29 95.2336 171.344 95.2188C171.469 95.1844 171.498 95.213 171.625 95.25C171.783 95.2959 171.904 95.5266 171.969 95.6562C172.03 95.7783 172.138 96.1102 172.281 96.375C172.435 96.6593 172.651 96.8433 172.969 96.5625C173.116 96.4323 172.985 96.2378 172.938 96.0312C172.948 96.0402 172.958 96.0208 172.969 96.0312C173.035 96.0942 172.945 95.9595 172.938 95.9375C172.909 95.8329 172.951 95.7262 172.938 95.6562C172.841 95.1605 172.796 94.6315 172.812 94.125C172.822 93.8475 173.02 93.5776 172.938 93.3125C172.759 92.7397 172.941 93.3195 173.125 92.9688C173.225 92.7731 173.133 92.5379 172.938 92.4375C172.742 92.3371 172.507 92.3981 172.406 92.5938C172.225 91.54 172.199 91.1823 172.219 91.5312C172.221 91.5726 172.217 91.6148 172.219 91.6562C172.237 92.1119 172.226 92.5769 172.188 93.0312C172.141 93.5778 171.975 94.0309 172 94.5938C171.946 94.565 171.902 94.5168 171.844 94.5C171.596 94.4287 171.413 94.6291 171.188 94.6875C171.466 93.7817 171.609 92.8364 171.781 91.9062C171.823 91.6835 171.867 91.4731 171.906 91.25C171.921 91.164 171.954 91.0861 171.969 91C171.987 90.8929 171.982 90.7939 172 90.6875C172.01 90.6306 172.02 90.4434 172.031 90.5C172.065 90.2945 171.924 90.0961 171.719 90.0625Z" fill="#662c0a" fill-opacity="0.958136" stroke="none"/>
</g>
<g opacity="1">
<path d="M162.781 90.9062C162.345 90.9588 162.041 91.3445 162.094 91.7812C162.413 94.4296 162.712 97.0704 163.031 99.7188C163.084 100.16 163.13 100.622 163.188 101.062C163.253 101.569 163.221 102.086 163.406 102.562C163.596 103.052 163.989 103.439 164.281 103.875C164.525 104.239 164.766 104.598 165 104.969C165.647 105.99 166.273 107.043 166.812 108.125C169.115 112.747 170.233 118.109 168.562 123.125C168.162 124.326 167.642 125.459 166.969 126.531C165.931 128.185 164.492 129.858 162.875 131C160.358 132.777 157.244 133.659 154.281 134.344C150.571 135.201 146.818 135.61 143.031 135C140.489 134.59 138.01 133.821 135.656 132.781C132.134 131.225 128.805 129.058 126.094 126.312C124.369 124.566 122.802 122.485 122.031 120.125C121.683 119.06 121.575 117.94 121.375 116.844C121.112 115.402 120.887 114.395 120.562 112.969C119.756 109.419 118.767 105.885 117.594 102.438C117.46 102.043 117.019 101.835 116.625 101.969C116.231 102.103 116.022 102.543 116.156 102.938C117.313 106.335 118.3 109.814 119.094 113.312C119.411 114.71 119.619 115.714 119.875 117.125C120.088 118.297 120.224 119.459 120.594 120.594C121.436 123.18 123.141 125.458 125.031 127.375C127.874 130.258 131.337 132.519 135.031 134.156C137.504 135.253 140.11 136.066 142.781 136.5C146.766 137.148 150.719 136.772 154.625 135.875C157.694 135.17 160.851 134.229 163.5 132.469C165.603 131.071 167.568 128.772 168.844 126.438C169.335 125.538 169.738 124.597 170.062 123.625C171.872 118.209 170.709 112.408 168.219 107.406C167.454 105.871 166.569 104.38 165.594 102.969C165.362 102.634 165.024 102.379 164.875 102C164.737 101.648 164.823 101.251 164.781 100.875C164.684 99.9911 164.575 99.1016 164.469 98.2188C164.203 96.0117 163.922 93.8008 163.656 91.5938C163.604 91.157 163.218 90.8537 162.781 90.9062Z" fill="#662c0a" fill-opacity="0.958136" stroke="none"/>
</g>
<g opacity="1">
<path d="M148.469 124.25C148.199 124.002 147.78 124.012 147.531 124.281C145.691 124.722 145.062 124.817 145.688 124.719C146.179 124.642 146.704 124.54 147.188 124.656C147.341 124.693 146.953 124.887 146.844 125C146.652 125.198 146.45 125.404 146.25 125.594C145.717 126.1 144.942 126.941 144.156 127.031C143.71 127.082 143.791 125.819 143.812 125.531C143.813 125.52 143.822 125.194 143.844 125.188C144.452 125.012 143.841 125.177 143.844 125.156C143.853 125.096 143.757 125.089 143.75 125.031C143.366 125.031 142.977 124.996 142.594 125C142.568 125 142.532 125.627 142.531 125.656C142.521 125.905 142.536 126.241 142.562 126.469C142.653 127.255 142.98 128.113 143.844 128.281C145.073 128.521 146.343 127.325 147.156 126.562C147.358 126.373 147.62 126.134 147.812 125.938C147.929 125.819 148.311 125.621 148.156 125.562C147.334 125.251 148.142 125.574 148.5 125.188C148.748 124.918 148.738 124.498 148.469 124.25ZM143.75 125.031C143.715 124.761 143.596 124.481 143.312 124.438C142.969 124.385 142.646 124.626 142.594 124.969C143.743 125.009 143.212 125.005 143.75 125.031Z" fill="#662c0a" fill-opacity="0.958136" stroke="none"/>
</g>
<path d="M141.443 124.853C141.365 124.99 141.179 125.159 141.324 125.294" fill="none" opacity="1" stroke="#662c0a" stroke-linecap="round" stroke-linejoin="round" stroke-opacity="0.958136" stroke-width="0.5"/>
<path d="M139.859 124.754C139.795 124.742 139.683 124.954 139.944 125" fill="none" opacity="1" stroke="#662c0a" stroke-linecap="round" stroke-linejoin="round" stroke-opacity="0.958136" stroke-width="0.5"/>
<path d="M149.821 124.616C150.015 124.743 150.3 124.883 149.893 124.998" fill="none" opacity="1" stroke="#662c0a" stroke-linecap="round" stroke-linejoin="round" stroke-opacity="0.958136" stroke-width="0.5"/>
<path d="M150.991 124.724C151.336 125.004 151.405 125.109 150.918 125.3" fill="none" opacity="1" stroke="#662c0a" stroke-linecap="round" stroke-linejoin="round" stroke-opacity="0.958136" stroke-width="0.5"/>
<path d="M146.9 120.626C146.857 120.957 147.94 121.464 148.167 121.556C149.152 121.958 151.393 122.713 152.231 121.799C153.172 120.771 151.804 119.702 150.935 120.489C150.118 121.228 151.48 121.482 151.792 120.872" fill="none" opacity="1" stroke="#662c0a" stroke-linecap="round" stroke-linejoin="round" stroke-opacity="0.958136" stroke-width="1.25"/>
<path d="M145.834 120.762C145.677 120.972 145.576 121.2 145.381 121.385C144.276 122.437 141.899 122.755 140.491 122.515C139.949 122.423 138.591 122.135 138.486 121.474C138.384 120.835 139.027 120.216 139.664 120.169C139.953 120.147 140.405 120.289 140.493 120.593C140.601 120.966 140.465 121.311 140.088 121.475C139.839 121.584 139.448 121.723 139.37 121.385" fill="none" opacity="1" stroke="#662c0a" stroke-linecap="round" stroke-linejoin="round" stroke-opacity="0.958136" stroke-width="1.25"/>
<path d="M145.025 113.427C145.025 113.427 145.581 112.202 146.487 111.441C147.538 110.558 149.048 110.387 148.696 112.106C148.606 112.546 148.261 113.075 147.85 113.8C147.599 114.242 147.323 114.757 147.065 115.369" fill="none" opacity="1" stroke="#662c0a" stroke-linecap="round" stroke-linejoin="round" stroke-opacity="0.958136" stroke-width="1.5"/>
<path d="M119.197 111.499C119.197 111.499 115.194 105.48 115.281 112.235C115.367 118.989 118.394 118.639 118.377 118.668C118.36 118.697 120.041 117.946 119.94 114.82" fill="none" opacity="1" stroke="#662c0a" stroke-linecap="round" stroke-linejoin="round" stroke-opacity="0.958136" stroke-width="1.25"/>
<path d="M135.109 98.3004C137.388 98.3114 139.22 101.038 139.203 104.39C139.186 107.742 137.325 110.451 135.047 110.44C132.769 110.429 130.936 107.702 130.953 104.35C130.971 100.998 132.831 98.2895 135.109 98.3004Z" fill="none" opacity="1" stroke="#662c0a" stroke-linecap="round" stroke-linejoin="round" stroke-opacity="0.958136" stroke-width="1"/>
<path d="M155.481 97.3455C157.759 97.3564 159.592 100.083 159.574 103.435C159.557 106.787 157.696 109.496 155.418 109.485C153.14 109.474 151.308 106.747 151.325 103.395C151.342 100.043 153.203 97.3345 155.481 97.3455Z" fill="none" opacity="1" stroke="#662c0a" stroke-linecap="round" stroke-linejoin="round" stroke-opacity="0.958136" stroke-width="1"/>
<g opacity="1">
<path d="M155.419 98.6088C156.939 98.6157 158.16 100.694 158.146 103.251C158.132 105.808 156.888 107.875 155.368 107.868C153.848 107.861 152.627 105.783 152.641 103.226C152.655 100.669 153.899 98.602 155.419 98.6088Z" fill="#662c0a" fill-opacity="0.958136" fill-rule="nonzero" stroke="none"/>
<path d="M155.406 98.4375C152.873 100.831 153.297 99.6463 152.875 100.844C152.288 102.511 152.294 104.507 153.031 106.125C153.454 107.053 154.262 108.027 155.375 108.031C155.832 108.033 155.917 107.874 155.906 107.469C155.726 107.539 155.582 107.689 155.375 107.688C154.22 107.681 155.366 107.683 155.438 98.8125C155.449 98.8234 155.458 98.8017 155.469 98.8125C155.469 98.7785 155.469 98.7842 155.469 98.75C155.537 98.722 155.602 98.6705 155.594 98.5938C155.586 98.517 155.51 98.4825 155.438 98.4688C155.422 98.4657 155.423 98.4358 155.406 98.4375ZM155.469 98.8125C155.463 104.578 155.887 106.737 155.906 107.469C156.579 107.207 157.11 106.631 157.406 106C158.125 104.466 158.167 102.563 157.625 100.969C157.273 99.9342 157.593 100.883 155.469 98.8125Z" fill="#662c0a" fill-opacity="0.958136" stroke="none"/>
</g>
<path d="M134.841 99.6546C136.387 99.5753 137.771 101.636 137.933 104.257C138.095 106.878 136.973 109.067 135.427 109.146C133.881 109.226 132.497 107.165 132.335 104.544C132.173 101.923 133.295 99.7339 134.841 99.6546Z" fill="#662c0a" fill-opacity="0.958136" fill-rule="nonzero" opacity="1" stroke="#662c0a" stroke-linecap="round" stroke-linejoin="round" stroke-opacity="0.958136" stroke-width="0.1"/>
<path d="M164.439 102.903L160.723 108.265" fill="none" opacity="1" stroke="#4e603e" stroke-linecap="round" stroke-linejoin="round" stroke-opacity="0.958136" stroke-width="1"/>
<path d="M128.753 107.566L130.893 107.373L128.288 108.699L130.431 108.391" fill="none" opacity="1" stroke="#662c0a" stroke-linecap="round" stroke-linejoin="round" stroke-opacity="0.958136" stroke-width="0.5"/>
<path d="M160.094 103.37L162.02 102.713" fill="none" opacity="1" stroke="#662c0a" stroke-linecap="round" stroke-linejoin="round" stroke-opacity="0.958136" stroke-width="0.5"/>
<path d="M160.195 104.661L161.613 103.779" fill="none" opacity="1" stroke="#662c0a" stroke-linecap="round" stroke-linejoin="round" stroke-opacity="0.958136" stroke-width="0.5"/>
<path d="M152.488 94.6308L152.387 96.6951C152.387 96.6951 161.759 96.0383 161.784 95.5222C161.809 95.0061 159.807 92.9426 152.488 94.6308Z" fill="#662c0a" fill-opacity="0.958136" fill-rule="nonzero" opacity="1" stroke="#662c0a" stroke-linecap="round" stroke-linejoin="round" stroke-opacity="0.958136" stroke-width="0.1"/>
<path d="M139.245 97.1196L138.935 97.9346L136.491 97.7619" fill="#662c0a" fill-opacity="0.958136" fill-rule="nonzero" opacity="1" stroke="#662c0a" stroke-linecap="round" stroke-linejoin="round" stroke-opacity="0.958136" stroke-width="1"/>
<path d="M129.298 99.4285C129.298 99.4285 127.495 99.9213 127.667 100.966C127.689 101.1 127.867 101.019 127.988 100.969C128.544 100.743 132.925 98.7097 132.925 98.7097" fill="#662c0a" fill-opacity="0.958136" fill-rule="nonzero" opacity="1" stroke="#662c0a" stroke-linecap="round" stroke-linejoin="round" stroke-opacity="0.958136" stroke-width="0.1"/>
<path d="M133.778 107.347C134.316 107.349 134.751 107.538 134.75 107.768C134.749 107.998 134.311 108.182 133.773 108.18C133.235 108.177 132.8 107.989 132.801 107.759C132.802 107.529 133.239 107.344 133.778 107.347Z" fill="#e7e7e7" fill-rule="nonzero" opacity="1" stroke="#e7e7e7" stroke-linecap="round" stroke-linejoin="round" stroke-width="1"/>
<path d="M116.621 111.8L117.988 112.699C117.988 112.699 115.488 114.639 118.612 115.981" fill="none" opacity="1" stroke="#662c0a" stroke-linecap="round" stroke-linejoin="round" stroke-opacity="0.958136" stroke-width="1"/>
<path d="M153.16 106.253C153.677 106.256 154.095 106.431 154.094 106.644C154.093 106.856 153.673 107.027 153.156 107.025C152.639 107.022 152.221 106.847 152.222 106.634C152.223 106.422 152.643 106.251 153.16 106.253Z" fill="#e7e7e7" fill-rule="nonzero" opacity="1" stroke="#e7e7e7" stroke-linecap="round" stroke-linejoin="round" stroke-width="1"/>
<path d="M133.094 111.783C133.094 111.783 136.254 112.232 136.949 111.835" fill="none" opacity="1" stroke="#662c0a" stroke-linecap="round" stroke-linejoin="round" stroke-opacity="0.958136" stroke-width="0.5"/>
<path d="M132.777 112.814L133.626 112.887" fill="none" opacity="1" stroke="#662c0a" stroke-linecap="round" stroke-linejoin="round" stroke-opacity="0.958136" stroke-width="0.5"/>
<path d="M159.425 108.606C159.425 108.606 159.15 109.661 158.076 109.992" fill="none" opacity="1" stroke="#662c0a" stroke-linecap="round" stroke-linejoin="round" stroke-opacity="0.958136" stroke-width="0.5"/>
<path d="M159.965 109.737L159.609 110.034" fill="none" opacity="1" stroke="#662c0a" stroke-linecap="round" stroke-linejoin="round" stroke-opacity="0.958136" stroke-width="0.5"/>
<g opacity="1">
<path d="M173.969 88.6562C173.777 88.8569 173.799 89.1831 174 89.375C173.987 89.3527 174.044 89.4198 174.062 89.4375C174.13 89.5022 174.213 89.5609 174.281 89.625C174.391 89.7287 174.483 89.8337 174.594 89.9375C174.881 90.2063 175.178 90.4849 175.469 90.75C176.114 91.3381 176.777 91.8992 177.469 92.4375C177.288 92.5345 177.109 92.6344 176.969 92.8125C176.941 92.8475 176.96 92.8994 176.938 92.9375C176.575 92.4423 176.146 92.098 175.719 91.6562C175.325 91.2488 175.733 91.6673 175.219 91.4062C175.115 91.3546 175.044 91.4828 174.938 91.5C175.01 91.8533 175.042 92.2215 175.156 92.5625C175.204 92.7041 175.393 92.7401 175.5 92.8438C175.732 93.0676 175.977 93.3598 176.156 93.625C176.381 93.957 176.572 94.3288 176.75 94.6875C176.788 94.7635 176.893 94.8288 176.938 94.9375C177.05 95.2092 177.116 95.5332 177.406 95.5625C178.032 95.6257 178.059 95.2509 177.969 94.8125C177.904 94.4958 177.781 94.1309 177.75 93.9688C177.726 93.8469 177.69 93.5534 177.781 93.4375C177.893 93.2945 178.007 93.2486 178.188 93.2188C178.324 93.1962 178.425 93.209 178.562 93.2188C178.672 93.2265 178.552 93.1889 178.562 93.1875C178.568 93.1868 178.605 93.1925 178.594 93.1875C178.84 93.2742 179.11 93.304 179.281 93.125C179.43 92.9694 179.467 92.801 179.406 92.5938C179.34 92.3698 179.087 92.3553 178.875 92.3125C178.915 92.3071 178.923 92.258 178.969 92.25C177.821 91.6028 176.876 90.6687 175.906 89.7812C175.641 89.5383 175.387 89.2775 175.125 89.0312C175.036 88.9474 174.932 88.8963 174.844 88.8125C174.796 88.7673 174.72 88.5906 174.719 88.6562C174.703 89.2676 174.705 88.6729 174.688 88.6562C174.487 88.4643 174.161 88.4556 173.969 88.6562ZM174.938 91.5C174.869 91.1666 174.757 90.8371 174.719 90.5C174.679 90.1498 174.733 91.0999 174.75 91.5625C174.811 91.5241 174.867 91.5115 174.938 91.5ZM174.75 91.5625C174.671 91.6125 174.545 91.5351 174.5 91.625C174.369 91.8873 174.488 92.2127 174.75 92.3438C174.739 91.5596 174.763 91.9025 174.75 91.5625Z" fill="#662c0a" fill-opacity="0.958136" stroke="none"/>
</g>
<path d="M143.526 109.894L149.828 109.177L149.954 111.462L160.941 110.962L160.59 106.83L149.762 107.523L149.829 109.039" fill="none" opacity="1" stroke="#4e603e" stroke-linecap="round" stroke-linejoin="round" stroke-opacity="0.958136" stroke-width="1"/>
<path d="M119.084 109.881L130.392 111.752L130.593 114.827L143.187 112.547L142.885 108.004L130.368 109.237L130.356 111.717" fill="none" opacity="1" stroke="#4e603e" stroke-linecap="round" stroke-linejoin="round" stroke-opacity="0.958136" stroke-width="1"/>
</g>
<g fill="#662c0a" fill-opacity="0.958136" opacity="1" stroke="none">
<path d="M103.971 44.8647L104.638 54.4544L116.577 56.902L112.541 61.1293L105.055 59.6434L105.138 61.0773L109.036 64.7997L105.507 68.4954L92.901 56.4581L96.43 52.7624L100.151 56.3156L99.4514 49.5983L103.971 44.8647Z"/>
<path d="M125.2 33.8278L132.266 49.7614L127.626 51.8187L127.3 51.0828C126.911 51.5872 126.463 52.0156 125.956 52.3682C125.448 52.7208 124.896 53.0295 124.299 53.2943C123.19 53.7862 122.058 54.0394 120.903 54.0538C119.748 54.0682 118.655 53.8766 117.623 53.4789C116.592 53.0813 115.653 52.4894 114.807 51.7033C113.96 50.9172 113.291 49.9696 112.799 48.8605C112.307 47.7513 112.054 46.6192 112.04 45.4643C112.025 44.3093 112.217 43.2161 112.615 42.1847C113.012 41.1532 113.604 40.2144 114.39 39.368C115.176 38.5217 116.124 37.8526 117.233 37.3608C117.83 37.0959 118.435 36.9045 119.046 36.7866C119.657 36.6686 120.271 36.6134 120.887 36.621L120.561 35.8852L125.2 33.8278ZM122.114 48.3671C122.519 48.1874 122.868 47.9371 123.159 47.6163C123.451 47.2956 123.669 46.9374 123.812 46.5419C123.956 46.1463 124.02 45.7288 124.003 45.2893C123.987 44.8499 123.889 44.4275 123.71 44.0222C123.53 43.6169 123.285 43.2661 122.975 42.9697C122.665 42.6733 122.317 42.4509 121.932 42.3025C121.547 42.1541 121.141 42.0857 120.712 42.0972C120.283 42.1087 119.866 42.2043 119.461 42.384C119.055 42.5637 118.699 42.811 118.392 43.1258C118.085 43.4407 117.852 43.7929 117.693 44.1825C117.534 44.5721 117.455 44.9837 117.456 45.4172C117.456 45.8508 117.547 46.2702 117.726 46.6754C117.906 47.0807 118.159 47.4345 118.484 47.7369C118.81 48.0392 119.173 48.2675 119.573 48.4218C119.973 48.5762 120.395 48.6506 120.84 48.645C121.284 48.6394 121.709 48.5468 122.114 48.3671Z"/>
<path d="M148.554 31.9654L148.789 41.3774C148.817 42.5204 148.628 43.5988 148.222 44.6126C147.815 45.6264 147.248 46.5158 146.52 47.2808C145.792 48.0458 144.932 48.6566 143.94 49.1132C142.948 49.5697 141.88 49.8122 140.737 49.8407C139.594 49.8692 138.516 49.6801 137.502 49.2736C136.488 48.8671 135.599 48.2999 134.834 47.5721C134.069 46.8442 133.458 45.9842 133.002 44.9919C132.545 43.9996 132.303 42.932 132.274 41.789L132.039 32.377L137.638 32.2374L137.872 41.6495C137.89 42.3726 138.174 42.9782 138.723 43.4664C139.272 43.9545 139.896 44.1899 140.596 44.1724C141.296 44.155 141.908 43.8888 142.432 43.374C142.956 42.8591 143.209 42.2401 143.191 41.517L142.956 32.1049L148.554 31.9654Z"/>
<path d="M168.071 38.0874L172.755 40.0389L166.053 56.1287L161.368 54.1771L158.282 42.6543L154.648 51.3777L149.963 49.4262L156.666 33.3364L161.35 35.2879L164.289 47.1661L168.071 38.0874Z"/>
<path d="M185.289 50.439C186.162 51.3477 186.806 52.3549 187.221 53.4606C187.636 54.5664 187.833 55.6884 187.81 56.8266C187.787 57.9648 187.546 59.078 187.087 60.1662C186.627 61.2544 185.944 62.2349 185.035 63.1078C184.126 63.9807 183.119 64.6247 182.013 65.0398C180.907 65.4549 179.785 65.651 178.647 65.6282C177.509 65.6053 176.396 65.3643 175.308 64.9051C174.219 64.446 173.239 63.762 172.366 62.8534C171.493 61.9447 170.849 60.9375 170.434 59.8317C170.019 58.726 169.823 57.604 169.846 56.4658C169.869 55.3276 170.11 54.2144 170.569 53.1262C171.028 52.038 171.712 51.0575 172.62 50.1846C173.529 49.3117 174.536 48.6677 175.642 48.2526C176.748 47.8375 177.87 47.6414 179.008 47.6642C180.146 47.6871 181.259 47.9281 182.348 48.3873C183.436 48.8464 184.416 49.5304 185.289 50.439ZM176.127 59.2406C176.483 59.6108 176.893 59.8955 177.36 60.0946C177.826 60.2938 178.29 60.398 178.752 60.4072C179.214 60.4165 179.678 60.3351 180.143 60.1629C180.609 59.9907 181.035 59.7187 181.422 59.3469C181.792 58.9913 182.077 58.5804 182.276 58.114C182.475 57.6477 182.579 57.1836 182.589 56.7217C182.598 56.2598 182.512 55.7919 182.332 55.318C182.152 54.8441 181.884 54.422 181.528 54.0518C181.157 53.6648 180.742 53.3759 180.283 53.1852C179.825 52.9944 179.365 52.8944 178.903 52.8851C178.441 52.8759 177.973 52.9614 177.499 53.1416C177.026 53.3219 176.603 53.5898 176.233 53.9454C175.846 54.3172 175.557 54.7322 175.367 55.1905C175.176 55.6487 175.076 56.1088 175.067 56.5707C175.057 57.0325 175.139 57.4962 175.311 57.9618C175.483 58.4273 175.755 58.8536 176.127 59.2406Z"/>
</g>
</g>
</svg>